<svg id="Layer_1" data-name="Layer 1" xmlns="http://www.w3.org/2000/svg" xmlns:xlink="http://www.w3.org/1999/xlink" viewBox="0 0 80.4 49.87"><defs><style>.cls-1{fill:url(#linear-gradient);}.cls-2{fill:url(#linear-gradient-2);}.cls-3{fill:url(#linear-gradient-3);}.cls-4{fill:url(#linear-gradient-4);}.cls-5{fill:url(#linear-gradient-5);}</style><linearGradient id="linear-gradient" x1="177.95" y1="-369.68" x2="204.49" y2="-300.19" gradientTransform="translate(-154.08 354.65) scale(0.91)" gradientUnits="userSpaceOnUse"><stop offset="0" stop-color="#bde3f0"/><stop offset="1" stop-color="#fff"/></linearGradient><linearGradient id="linear-gradient-2" x1="244.39" y1="-360.9" x2="236.81" y2="-416.5" xlink:href="#linear-gradient"/><linearGradient id="linear-gradient-3" x1="215.03" y1="-313.16" x2="212.5" y2="-356.12" xlink:href="#linear-gradient"/><linearGradient id="linear-gradient-4" x1="212.82" y1="-498.8" x2="215.35" y2="-190.51" gradientTransform="translate(-154.08 354.65) scale(0.91)" gradientUnits="userSpaceOnUse"><stop offset="0" stop-color="#47c1ee"/><stop offset="0.14" stop-color="#5ac7f0"/><stop offset="0.42" stop-color="#8cd8f4"/><stop offset="0.82" stop-color="#dbf3fc"/><stop offset="0.99" stop-color="#fff"/></linearGradient><linearGradient id="linear-gradient-5" x1="214.42" y1="-416.52" x2="213.16" y2="-369.77" xlink:href="#linear-gradient"/></defs><path class="cls-1" d="M4.29,0H4A4,4,0,0,0,0,4V45.9a4,4,0,0,0,2.38,3.64L28.1,23.81Z"/><path class="cls-2" d="M78,49.54A4,4,0,0,0,80.4,45.9V4a4,4,0,0,0-4-4h-.32L52.3,23.81Z"/><path class="cls-3" d="M76.43,49.87A4,4,0,0,0,78,49.54L52.3,23.81l-8.74,8.74a4.74,4.74,0,0,1-6.72,0L28.1,23.81,2.38,49.54A4,4,0,0,0,4,49.87Z"/><path class="cls-4" d="M36.84,32.55a4.74,4.74,0,0,0,6.72,0L76.11,0H4.29Z"/><path class="cls-5" d="M36.84,26.27a5.61,5.61,0,0,0,6.72,0L76.11,0H4.29Z"/></svg>