<svg id="Layer_1" data-name="Layer 1" xmlns="http://www.w3.org/2000/svg" xmlns:xlink="http://www.w3.org/1999/xlink" viewBox="0 0 71.6 71.6"><defs><style>.cls-1{fill:url(#radial-gradient);}.cls-2{fill:url(#linear-gradient);}.cls-3{fill:#565759;}.cls-4{fill:url(#linear-gradient-2);}.cls-5{fill:#f39f31;}.cls-6{fill:url(#linear-gradient-3);}.cls-7{fill:#f7c131;}.cls-8{fill:url(#linear-gradient-4);}.cls-9{fill:#ffeb13;}.cls-10{fill:url(#linear-gradient-5);}</style><radialGradient id="radial-gradient" cx="-378.61" cy="-255.11" r="5.09" gradientTransform="matrix(1.25, 1.25, -2.8, 2.8, -184.7, 1201.24)" gradientUnits="userSpaceOnUse"><stop offset="0" stop-color="#ec7840"/><stop offset="0.32" stop-color="#d9683a"/><stop offset="0.98" stop-color="#a83d2c"/><stop offset="1" stop-color="#a63c2b"/></radialGradient><linearGradient id="linear-gradient" x1="1678.94" y1="648.08" x2="1715.84" y2="648.08" gradientTransform="translate(-549.89 -848.42) rotate(45) scale(0.61 0.38)" gradientUnits="userSpaceOnUse"><stop offset="0.01" stop-color="#f4d8c4"/><stop offset="0.53" stop-color="#a17f54"/><stop offset="0.56" stop-color="#a9875f"/><stop offset="0.7" stop-color="#cdad8f"/><stop offset="0.83" stop-color="#e6c8b2"/><stop offset="0.93" stop-color="#f6d8c7"/><stop offset="1" stop-color="#fcdecf"/></linearGradient><linearGradient id="linear-gradient-2" x1="1671.64" y1="773.65" x2="1708.55" y2="773.65" gradientTransform="translate(-641.47 -788.97) rotate(45) scale(0.63 0.17)" gradientUnits="userSpaceOnUse"><stop offset="0.01" stop-color="#ddc08e"/><stop offset="0.53" stop-color="#bd9363"/><stop offset="1" stop-color="#dec296"/></linearGradient><linearGradient id="linear-gradient-3" x1="1671.64" y1="773.71" x2="1708.55" y2="773.71" xlink:href="#linear-gradient-2"/><linearGradient id="linear-gradient-4" x1="1671.64" y1="773.72" x2="1708.55" y2="773.72" xlink:href="#linear-gradient-2"/><linearGradient id="linear-gradient-5" x1="1671.61" y1="431.79" x2="1708.31" y2="431.79" gradientTransform="matrix(0, 0.63, -0.15, 0, 120.68, -1047.25)" gradientUnits="userSpaceOnUse"><stop offset="0.01" stop-color="#9fa0a3"/><stop offset="0.05" stop-color="#abacaf"/><stop offset="0.19" stop-color="#d0d0d2"/><stop offset="0.32" stop-color="#eaeaeb"/><stop offset="0.44" stop-color="#f9fafa"/><stop offset="0.53" stop-color="#fff"/><stop offset="1" stop-color="#8a8c8f"/></linearGradient></defs><path class="cls-1" d="M61.9,26c-2.42,2.42-6.67,2.09-9.5-.73l-6.06-6.07c-2.83-2.83-3.15-7.08-.73-9.51l8.07-8.08c2.42-2.42,6.68-2.09,9.5.73l6.07,6.07c2.82,2.83,3.15,7.08.72,9.51Z"/><polygon class="cls-2" points="13.28 66.31 26.8 60.78 18.81 52.78 10.81 44.77 5.29 58.31 2.03 66.27 5.32 69.56 13.28 66.31"/><polygon class="cls-3" points="9.36 67.91 3.67 62.26 0 71.6 9.36 67.91"/><polygon points="16.1 50.06 16.1 50.07 16.11 50.06 16.1 50.06"/><path class="cls-4" d="M12.28,48.48c1.48,1.48,3.19,2.19,3.82,1.59l-5.41-5.42h0v1.51A7,7,0,0,0,12.28,48.48Z"/><path class="cls-5" d="M16,50.16,55.73,10.41,50.32,5,10.56,44.77l.09.09.06,1.36a7.72,7.72,0,0,0,1.65,2.28c1.48,1.49,3.13,2.25,3.7,1.71Z"/><path d="M21.56,55.53l0,0a.83.83,0,0,0,.07-.13Z"/><path class="cls-6" d="M18.88,52.85l-2.71-2.71c-.62.62.09,2.34,1.58,3.83s3.21,2.21,3.84,1.59l0,0Z"/><path class="cls-7" d="M21.44,55.65,61.19,15.88l-5.46-5.47L16,50.19l.07.07c-.55.56.21,2.22,1.7,3.71s3.16,2.26,3.72,1.71Z"/><path class="cls-8" d="M27,61,21.83,55.8c-.62.62.09,2.34,1.58,3.84a8.29,8.29,0,0,0,1.92,1.43l1.74,0Z"/><path class="cls-9" d="M66.61,21.3l-5.42-5.42L21.44,55.66l.17.17c-.55.56.21,2.22,1.71,3.71A8.38,8.38,0,0,0,25.21,61l1.64.07h0Z"/><rect class="cls-10" x="54.15" y="3.4" width="5.05" height="23.05" transform="translate(6.03 44.43) rotate(-44.98)"/></svg>