<svg id="Layer_1" data-name="Layer 1" xmlns="http://www.w3.org/2000/svg" xmlns:xlink="http://www.w3.org/1999/xlink" viewBox="0 0 80.2 58.13"><defs><style>.cls-1{fill:url(#linear-gradient);}.cls-2{fill:url(#linear-gradient-2);}.cls-3{fill:url(#linear-gradient-3);}</style><linearGradient id="linear-gradient" x1="-801.18" y1="-958.71" x2="-801.18" y2="-904.61" gradientTransform="translate(822.61 1033.78) scale(0.98 1.08)" gradientUnits="userSpaceOnUse"><stop offset="0" stop-color="#ee953d"/><stop offset="1" stop-color="#f6d8a8"/></linearGradient><linearGradient id="linear-gradient-2" x1="-795.51" y1="-914.55" x2="-795.51" y2="-953.84" gradientTransform="translate(823.6 958.39) scale(0.98)" gradientUnits="userSpaceOnUse"><stop offset="0" stop-color="#f6cd3c"/><stop offset="1" stop-color="#f6d8a8"/></linearGradient><linearGradient id="linear-gradient-3" x1="-799.79" y1="-876.47" x2="-824.91" y2="-904.17" gradientTransform="translate(847.9 920.11) scale(0.98)" gradientUnits="userSpaceOnUse"><stop offset="0" stop-color="#f3eee9"/><stop offset="0.02" stop-color="#f3ede4"/><stop offset="0.26" stop-color="#f5e2b2"/><stop offset="0.49" stop-color="#f6d98a"/><stop offset="0.69" stop-color="#f7d36d"/><stop offset="0.87" stop-color="#f8cf5c"/><stop offset="1" stop-color="#f8ce56"/></linearGradient></defs><path class="cls-1" d="M64.06,7.39H42.4C42.37,3.3,40.47,0,38.12,0H4.82C2.46,0,.54,3.37.54,7.52A12.48,12.48,0,0,0,.66,9.28a3,3,0,0,0-.12.8V55.45A2.58,2.58,0,0,0,3,58.13H64.06a2.59,2.59,0,0,0,2.46-2.68V10.08A2.59,2.59,0,0,0,64.06,7.39Z"/><path class="cls-2" d="M78.44,11.42H56.68c-1.94,3.95-6.37,7-10.49,7H12.57L.13,55.28a1.71,1.71,0,0,0,1.63,2.45H62.83a3.75,3.75,0,0,0,3.28-2.45l14-41.41A1.71,1.71,0,0,0,78.44,11.42Z"/><path class="cls-3" d="M73.41,15.37H72.09L60.55,50a3.23,3.23,0,0,1-2.81,2.13H6.56L6.29,53a1.46,1.46,0,0,0,1.39,2.1H60A3.23,3.23,0,0,0,62.84,53l12-35.49A1.47,1.47,0,0,0,73.41,15.37Z"/></svg>