<svg id="Layer_1" data-name="Layer 1" xmlns="http://www.w3.org/2000/svg" xmlns:xlink="http://www.w3.org/1999/xlink" viewBox="0 0 82.52 82.52"><defs><style>.cls-1{fill:#fff;}.cls-2{fill:#afb1b3;}.cls-3{fill:url(#linear-gradient);}.cls-4{fill:#e9e9e9;}</style><linearGradient id="linear-gradient" x1="-796.66" y1="-346.6" x2="-733.24" y2="-408.97" gradientTransform="translate(681.19 358.47) scale(0.84)" gradientUnits="userSpaceOnUse"><stop offset="0" stop-color="#8498aa"/><stop offset="0.11" stop-color="#97a8b7"/><stop offset="0.32" stop-color="#c8d1d9"/><stop offset="0.53" stop-color="#fff"/><stop offset="0.55" stop-color="#fbfcfd"/><stop offset="0.73" stop-color="#d9e4ea"/><stop offset="0.89" stop-color="#c5d4de"/><stop offset="0.99" stop-color="#bdcfda"/></linearGradient></defs><path class="cls-1" d="M82.27,41.26a41,41,0,1,1-41-41A41,41,0,0,1,82.27,41.26Z"/><path class="cls-2" d="M0,41.26A41.26,41.26,0,1,0,41.26,0,41.31,41.31,0,0,0,0,41.26Zm.5,0A40.76,40.76,0,1,1,41.26,82,40.8,40.8,0,0,1,.5,41.26Z"/><path class="cls-3" d="M79.62,41.26A38.36,38.36,0,1,1,41.26,2.9,38.36,38.36,0,0,1,79.62,41.26Z"/><path class="cls-2" d="M2.65,41.26A38.61,38.61,0,1,0,41.26,2.65,38.65,38.65,0,0,0,2.65,41.26Zm.5,0A38.11,38.11,0,1,1,41.26,79.37,38.15,38.15,0,0,1,3.15,41.26Z"/><path class="cls-4" d="M54.73,41.26A13.47,13.47,0,1,1,41.26,27.79,13.47,13.47,0,0,1,54.73,41.26Z"/><path class="cls-2" d="M27.54,41.26A13.72,13.72,0,1,0,41.26,27.54,13.73,13.73,0,0,0,27.54,41.26Zm.5,0A13.22,13.22,0,1,1,41.26,54.48,13.23,13.23,0,0,1,28,41.26Z"/><circle class="cls-1" cx="41.26" cy="41.26" r="6.85"/><path class="cls-2" d="M34.16,41.26a7.1,7.1,0,1,0,7.1-7.1A7.11,7.11,0,0,0,34.16,41.26Zm.5,0a6.6,6.6,0,1,1,6.6,6.6A6.61,6.61,0,0,1,34.66,41.26Z"/></svg>