<svg id="Layer_1" data-name="Layer 1" xmlns="http://www.w3.org/2000/svg" xmlns:xlink="http://www.w3.org/1999/xlink" viewBox="0 0 66.87 85.52"><defs><style>.cls-1{fill:url(#linear-gradient);}.cls-2{fill:url(#linear-gradient-2);}.cls-3{fill:url(#linear-gradient-3);}.cls-4{fill:#231f20;}.cls-5{fill:url(#linear-gradient-4);}</style><linearGradient id="linear-gradient" x1="147.34" y1="808.37" x2="146.46" y2="779.95" gradientTransform="translate(-154.61 -1187.04) scale(1.28 1.52)" gradientUnits="userSpaceOnUse"><stop offset="0" stop-color="#fabd6c"/><stop offset="0.97" stop-color="#e0ac7b"/></linearGradient><linearGradient id="linear-gradient-2" x1="190.34" y1="772.19" x2="190.34" y2="742.46" gradientTransform="translate(-256.28 -1089.3) scale(1.52)" gradientUnits="userSpaceOnUse"><stop offset="0" stop-color="#1aa84f"/><stop offset="0.97" stop-color="#25a951"/></linearGradient><linearGradient id="linear-gradient-3" x1="190.34" y1="744.65" x2="190.34" y2="770.88" gradientTransform="translate(-256.28 -1089.3) scale(1.52)" gradientUnits="userSpaceOnUse"><stop offset="0" stop-color="#ece87f"/><stop offset="0.97" stop-color="#25a951"/></linearGradient><linearGradient id="linear-gradient-4" x1="217.52" y1="683.3" x2="217.52" y2="708.22" gradientTransform="translate(-244.79 -1037.29) scale(1.28 1.52)" gradientUnits="userSpaceOnUse"><stop offset="0" stop-color="#fff"/><stop offset="0.97" stop-color="#e0ac7b"/></linearGradient></defs><ellipse class="cls-1" cx="32.89" cy="20.63" rx="17.26" ry="20.63"/><path class="cls-2" d="M33.44,42.27c-18.47,0-27.82,11-27.82,11A27.63,27.63,0,0,0,0,68.63v8.19a8.72,8.72,0,0,0,8.68,8.7H58.19a8.72,8.72,0,0,0,8.68-8.7V68.63a27.63,27.63,0,0,0-5.62-15.34S51.9,42.27,33.44,42.27Z"/><path class="cls-3" d="M8.07,53.54a25.77,25.77,0,0,0-5.9,15.09v6a8.71,8.71,0,0,0,8.68,8.7H56a8.71,8.71,0,0,0,8.68-8.7v-6a25.77,25.77,0,0,0-5.9-15.09s-8.42-9.1-25.36-9.1S8.07,53.54,8.07,53.54Z"/><path class="cls-4" d="M31.36,48.3s-3-3.1,1-3.48,2.34,3,2.34,3L38.1,75.34,33,80.41l-5.24-5.25Z"/><ellipse class="cls-5" cx="32.89" cy="20.63" rx="15.59" ry="18.63"/></svg>