<svg id="Layer_1" data-name="Layer 1" xmlns="http://www.w3.org/2000/svg" xmlns:xlink="http://www.w3.org/1999/xlink" viewBox="0 0 85.45 85.45"><defs><style>.cls-1{fill:url(#linear-gradient);}.cls-2{fill:url(#linear-gradient-2);}.cls-3{fill:url(#linear-gradient-3);}.cls-4{fill:url(#linear-gradient-4);}.cls-5{fill:#231f20;}.cls-6{fill:url(#radial-gradient);}.cls-7{fill:url(#radial-gradient-2);}.cls-8{fill:#dddfe0;}.cls-9{fill:url(#linear-gradient-5);}.cls-10{fill:url(#linear-gradient-6);}</style><linearGradient id="linear-gradient" x1="733.04" y1="-372.79" x2="759.92" y2="-771.18" gradientTransform="translate(-128.7 172.51) scale(0.23)" gradientUnits="userSpaceOnUse"><stop offset="0.17" stop-color="#d0d0d2"/><stop offset="0.56" stop-color="#fff"/><stop offset="0.69" stop-color="#fcfcfc"/><stop offset="0.77" stop-color="#f3f3f3"/><stop offset="0.85" stop-color="#e3e3e4"/><stop offset="0.92" stop-color="#cccdcf"/><stop offset="0.99" stop-color="#b0b1b3"/><stop offset="1" stop-color="#abacaf"/></linearGradient><linearGradient id="linear-gradient-2" x1="746.17" y1="-45.28" x2="595.99" y2="-432.6" gradientTransform="translate(-122.5 69.45) scale(0.23)" gradientUnits="userSpaceOnUse"><stop offset="0.17" stop-color="#d0d0d2"/><stop offset="0.56" stop-color="#d4d4d6"/><stop offset="0.72" stop-color="#d1d1d3"/><stop offset="0.84" stop-color="#c8c8ca"/><stop offset="0.94" stop-color="#b8b9bb"/><stop offset="1" stop-color="#abacaf"/></linearGradient><linearGradient id="linear-gradient-3" x1="717.38" y1="-121.87" x2="771.13" y2="64.68" gradientTransform="translate(-122.5 69.45) scale(0.23)" gradientUnits="userSpaceOnUse"><stop offset="0" stop-color="#fff"/><stop offset="0.14" stop-color="#f4f4f4"/><stop offset="0.38" stop-color="#d5d5d6"/><stop offset="0.71" stop-color="#a4a5a6"/><stop offset="1" stop-color="#727375"/></linearGradient><linearGradient id="linear-gradient-4" x1="-867.89" y1="1441.1" x2="-794.78" y2="1507.08" gradientTransform="translate(677.6 -1084.16) scale(0.76)" gradientUnits="userSpaceOnUse"><stop offset="0" stop-color="#808284"/><stop offset="0.51" stop-color="#fff"/><stop offset="0.57" stop-color="#dfe0e0"/><stop offset="0.66" stop-color="#bbbcbe"/><stop offset="0.74" stop-color="#9fa0a2"/><stop offset="0.83" stop-color="#8a8c8f"/><stop offset="0.92" stop-color="#7e8083"/><stop offset="1" stop-color="#7a7c7f"/></linearGradient><radialGradient id="radial-gradient" cx="-141.76" cy="-262.6" fx="-73.78062382082655" fy="-216.74866663601264" r="119.32" gradientTransform="translate(89.91 118.92) scale(0.23)" gradientUnits="userSpaceOnUse"><stop offset="0" stop-color="#797b7e"/><stop offset="0.29" stop-color="#565658"/><stop offset="0.58" stop-color="#3a3839"/><stop offset="0.83" stop-color="#292627"/><stop offset="1" stop-color="#231f20"/></radialGradient><radialGradient id="radial-gradient-2" cx="772.44" cy="-696.71" fx="657.3550155186492" fy="-731.8028661811345" r="120.32" gradientTransform="translate(-124.41 171.77) scale(0.22)" gradientUnits="userSpaceOnUse"><stop offset="0" stop-color="#797b7e"/><stop offset="0.38" stop-color="#5b5b5d"/><stop offset="1" stop-color="#231f20"/></radialGradient><linearGradient id="linear-gradient-5" x1="293.92" y1="-741.59" x2="303.05" y2="-757.05" gradientTransform="translate(-9.73 175.3) scale(0.18)" gradientUnits="userSpaceOnUse"><stop offset="0" stop-color="#535356"/><stop offset="0.45" stop-color="#7e8182"/><stop offset="0.55" stop-color="#737677"/><stop offset="0.73" stop-color="#575758"/><stop offset="0.97" stop-color="#2a2627"/><stop offset="1" stop-color="#231f20"/></linearGradient><linearGradient id="linear-gradient-6" x1="285.06" y1="-747.67" x2="300.82" y2="-747.67" gradientTransform="translate(-9.73 175.3) scale(0.18)" gradientUnits="userSpaceOnUse"><stop offset="0.01" stop-color="#c1c2c4"/><stop offset="0.77" stop-color="#646669"/></linearGradient></defs><path class="cls-1" d="M85.45,42.73A42.73,42.73,0,1,1,42.72,0,42.73,42.73,0,0,1,85.45,42.73Z"/><path class="cls-2" d="M23.09,55c4.89.37,13,2.1,17.46-.41,2.34-1.31,4.35-4.7,5.92-6.83A105.93,105.93,0,0,1,63.28,29.16c5.08-4.4,8.55-6.74,15.41-8l.44-.08A42.37,42.37,0,0,0,1.42,52.19C8.48,51.55,16.11,54.48,23.09,55Z"/><path class="cls-3" d="M42.73,85.09a42.36,42.36,0,0,0,36.4-64l-.44.08c-6.86,1.27-10.33,3.61-15.41,8A105.93,105.93,0,0,0,46.47,47.77c-1.57,2.13-3.58,5.52-5.92,6.83-4.49,2.51-12.57.78-17.46.41-7-.53-14.61-3.46-21.67-2.82A42.38,42.38,0,0,0,42.73,85.09Z"/><path class="cls-4" d="M80,42.73A37.25,37.25,0,1,1,42.72,5.48,37.25,37.25,0,0,1,80,42.73Z"/><path class="cls-5" d="M78.88,42.73A36.16,36.16,0,1,1,42.72,6.57,36.16,36.16,0,0,1,78.88,42.73Z"/><path class="cls-6" d="M29.39,48.74A192.85,192.85,0,0,1,10,51.87,34,34,0,1,0,70.86,23.69c-7,2.83-13.28,7.49-19.17,12.53C44.86,41.91,38,46.92,29.39,48.74Z"/><path class="cls-7" d="M42.72,8.75A34,34,0,0,0,10,51.87a192.85,192.85,0,0,0,19.39-3.13c8.65-1.82,15.47-6.83,22.3-12.52,5.89-5,12.16-9.7,19.17-12.53A33.93,33.93,0,0,0,42.72,8.75Z"/><polygon class="cls-8" points="59.71 13.14 58.53 15.19 58.53 15.19 58.16 15.85 58.47 16.02 58.84 15.37 58.85 15.37 60.1 13.2 59.79 13.02 59.71 13.14"/><polygon class="cls-8" points="77.25 43.16 74.88 43.16 74.88 43.16 74.13 43.16 74.13 43.51 74.88 43.51 74.88 43.52 77.4 43.52 77.4 43.16 77.25 43.16"/><polygon class="cls-8" points="14.52 26.98 12.35 25.73 12.28 25.86 12.17 26.05 14.35 27.3 14.35 27.29 15 27.67 15.18 27.36 14.52 26.98 14.52 26.98"/><polygon class="cls-8" points="70.63 59.38 69.98 59 69.91 59.13 69.81 59.32 70.46 59.69 70.46 59.7 72.63 60.95 72.82 60.64 70.63 59.37 70.63 59.38"/><polygon class="cls-8" points="26.45 15.19 25.19 13.02 25.07 13.09 24.88 13.2 26.13 15.37 26.14 15.37 26.52 16.02 26.82 15.84 26.45 15.19 26.45 15.19"/><polygon class="cls-8" points="58.85 71.31 58.47 70.66 58.34 70.72 58.16 70.82 58.53 71.48 58.53 71.48 59.79 73.66 60.1 73.48 58.85 71.31 58.85 71.31"/><polygon class="cls-8" points="69.98 27.67 70.64 27.29 70.64 27.3 72.81 26.05 72.63 25.73 72.5 25.8 70.46 26.98 70.46 26.98 69.81 27.36 69.98 27.67"/><polygon class="cls-8" points="15.01 59 14.87 59.08 14.35 59.38 14.35 59.37 14.22 59.45 12.17 60.64 12.36 60.95 14.52 59.7 14.52 59.69 15.17 59.32 15.01 59"/><polygon class="cls-8" points="26.52 70.65 26.45 70.78 26.14 71.31 26.14 71.31 26.06 71.43 24.88 73.48 25.19 73.66 26.45 71.48 26.45 71.48 26.82 70.83 26.52 70.65"/><polygon class="cls-8" points="42.67 9.19 42.67 8.43 42.67 8.43 42.67 8.43 42.31 8.43 42.31 8.43 42.31 8.43 42.31 8.58 42.31 9.19 42.31 9.19 42.31 10.66 42.31 10.94 42.31 10.94 42.31 11.7 42.31 11.7 42.31 11.7 42.67 11.69 42.67 11.69 42.67 11.69 42.67 11.55 42.67 10.94 42.67 10.94 42.67 9.46 42.67 9.19 42.67 9.19"/><polygon class="cls-8" points="42.67 75.73 42.67 74.98 42.67 74.98 42.67 74.98 42.31 74.98 42.31 74.98 42.31 74.98 42.31 75.84 42.31 75.88 42.31 76.63 42.31 77.49 42.31 77.49 42.31 78.24 42.31 78.24 42.31 78.24 42.67 78.24 42.67 78.24 42.67 78.24 42.67 77.39 42.67 77.34 42.67 76.59 42.67 75.73 42.67 75.73"/><polygon class="cls-8" points="10.1 43.16 10.1 43.16 9.95 43.16 7.58 43.16 7.58 43.52 10.1 43.52 10.1 43.51 10.85 43.51 10.85 43.16 10.71 43.16 10.1 43.16"/><polygon class="cls-8" points="38.83 8.77 39.05 10.98 39.12 10.97 38.89 8.77 38.83 8.77"/><polygon class="cls-8" points="45.86 75.71 46.09 77.91 46.16 77.9 45.93 75.7 45.86 75.71"/><polygon class="cls-8" points="68.8 24.18 68.84 24.23 70.63 22.94 70.59 22.88 68.8 24.18"/><polygon class="cls-8" points="14.35 63.74 14.39 63.8 16.18 62.5 16.14 62.44 14.35 63.74"/><polygon class="cls-8" points="28.32 75.08 28.38 75.1 29.28 73.08 29.23 73.06 28.32 75.08"/><polygon class="cls-8" points="55.7 13.59 55.76 13.61 56.66 11.6 56.6 11.57 55.7 13.59"/><polygon class="cls-8" points="7.92 46.94 7.93 47 10.13 46.77 10.12 46.71 7.92 46.94"/><polygon class="cls-8" points="74.85 39.9 74.86 39.97 77.06 39.74 77.06 39.67 74.85 39.9"/><polygon class="cls-8" points="10.72 29.23 12.75 30.13 12.77 30.07 10.75 29.17 10.72 29.23"/><polygon class="cls-8" points="72.21 56.61 74.23 57.51 74.26 57.45 72.23 56.55 72.21 56.61"/><polygon class="cls-8" points="22.03 15.23 23.34 17.02 23.39 16.99 22.09 15.2 22.03 15.23"/><rect class="cls-8" x="62.24" y="69.46" width="0.07" height="2.21" transform="translate(-29.61 50.19) rotate(-36.07)"/><polygon class="cls-8" points="35.23 9.35 35.69 11.52 35.76 11.5 35.3 9.34 35.23 9.35"/><polygon class="cls-8" points="49.22 75.18 49.68 77.34 49.75 77.33 49.29 75.16 49.22 75.18"/><polygon class="cls-8" points="66.66 21.54 66.7 21.59 68.34 20.11 68.3 20.05 66.66 21.54"/><polygon class="cls-8" points="16.64 66.57 16.68 66.62 18.33 65.14 18.28 65.09 16.64 66.57"/><polygon class="cls-8" points="31.72 76.38 31.78 76.41 32.47 74.3 32.4 74.28 31.72 76.38"/><polygon class="cls-8" points="52.52 12.38 52.58 12.39 53.26 10.29 53.2 10.27 52.52 12.38"/><polygon class="cls-8" points="8.49 50.53 8.5 50.6 10.67 50.13 10.65 50.07 8.49 50.53"/><polygon class="cls-8" points="74.31 36.54 74.33 36.6 76.5 36.14 76.48 36.08 74.31 36.54"/><polygon class="cls-8" points="9.42 32.63 11.53 33.31 11.55 33.25 9.44 32.56 9.42 32.63"/><polygon class="cls-8" points="73.44 53.43 75.53 54.11 75.56 54.05 73.45 53.36 73.44 53.43"/><polygon class="cls-8" points="19.21 17.53 20.69 19.17 20.74 19.13 19.26 17.48 19.21 17.53"/><polygon class="cls-8" points="64.24 67.55 65.73 69.19 65.77 69.14 64.3 67.5 64.24 67.55"/><polygon class="cls-8" points="31.72 10.29 32.4 12.4 32.47 12.38 31.78 10.27 31.72 10.29"/><polygon class="cls-8" points="52.52 74.3 53.2 76.4 53.26 76.38 52.58 74.28 52.52 74.3"/><polygon class="cls-8" points="64.24 19.13 64.29 19.17 65.78 17.53 65.72 17.48 64.24 19.13"/><polygon class="cls-8" points="19.21 69.15 19.26 69.19 20.74 67.55 20.69 67.5 19.21 69.15"/><polygon class="cls-8" points="35.23 77.33 35.3 77.34 35.76 75.18 35.69 75.17 35.23 77.33"/><polygon class="cls-8" points="49.23 11.5 49.29 11.51 49.75 9.34 49.69 9.33 49.23 11.5"/><polygon class="cls-8" points="9.43 54.05 9.44 54.11 11.55 53.42 11.54 53.36 9.43 54.05"/><polygon class="cls-8" points="73.43 33.25 73.45 33.31 75.56 32.63 75.54 32.57 73.43 33.25"/><rect class="cls-8" x="9.54" y="35.24" width="0.07" height="2.21" transform="translate(-27.96 38.19) rotate(-78.06)"/><polygon class="cls-8" points="74.32 50.14 76.48 50.6 76.5 50.53 74.33 50.07 74.32 50.14"/><polygon class="cls-8" points="16.64 20.1 18.28 21.58 18.33 21.53 16.68 20.06 16.64 20.1"/><rect class="cls-8" x="67.47" y="64.75" width="0.07" height="2.21" transform="translate(-26.6 72.06) rotate(-48.07)"/><polygon class="cls-8" points="28.32 11.6 29.23 13.62 29.29 13.6 28.39 11.57 28.32 11.6"/><polygon class="cls-8" points="55.7 73.08 56.6 75.1 56.66 75.08 55.76 73.05 55.7 73.08"/><polygon class="cls-8" points="61.6 16.99 61.65 17.03 62.95 15.24 62.89 15.2 61.6 16.99"/><polygon class="cls-8" points="22.03 71.44 22.09 71.48 23.39 69.69 23.34 69.65 22.03 71.44"/><polygon class="cls-8" points="38.83 77.9 38.89 77.91 39.12 75.71 39.05 75.7 38.83 77.9"/><polygon class="cls-8" points="45.86 10.96 45.92 10.97 46.16 8.77 46.09 8.77 45.86 10.96"/><polygon class="cls-8" points="10.73 57.44 10.75 57.5 12.78 56.6 12.75 56.55 10.73 57.44"/><polygon class="cls-8" points="72.21 30.07 72.23 30.13 74.26 29.23 74.23 29.17 72.21 30.07"/><polygon class="cls-8" points="7.92 39.74 10.12 39.97 10.13 39.9 7.93 39.67 7.92 39.74"/><polygon class="cls-8" points="74.86 46.78 77.06 47 77.06 46.94 74.86 46.71 74.86 46.78"/><polygon class="cls-8" points="14.35 22.93 16.14 24.23 16.18 24.18 14.39 22.88 14.35 22.93"/><polygon class="cls-8" points="68.8 62.5 70.59 63.79 70.63 63.74 68.84 62.44 68.8 62.5"/><path class="cls-8" d="M68.25,43.28a3.42,3.42,0,0,1,1.81,1,2.62,2.62,0,0,1,.61,1.74,2.73,2.73,0,0,1-1,2.16,4,4,0,0,1-2.66.81,3.47,3.47,0,0,1-2.35-.71,2.25,2.25,0,0,1-.84-1.81,1.56,1.56,0,0,1,.34-1.05,1.14,1.14,0,0,1,.87-.38,1.1,1.1,0,0,1,.79.31,1,1,0,0,1,.3.75,1.09,1.09,0,0,1-.62,1,1.29,1.29,0,0,0-.33.23.31.31,0,0,0,0,.17.59.59,0,0,0,.35.49,2.06,2.06,0,0,0,1.15.33A1.65,1.65,0,0,0,68,47.78a3.56,3.56,0,0,0,0-3.48,1.36,1.36,0,0,0-1.11-.56,2,2,0,0,0-.43,0,2.31,2.31,0,0,1-.39,0,.43.43,0,0,1-.32-.11.45.45,0,0,1-.12-.33.46.46,0,0,1,.13-.34.52.52,0,0,1,.38-.12l.29,0,.39,0a1.28,1.28,0,0,0,1-.45A2.44,2.44,0,0,0,68.24,41a2.25,2.25,0,0,0-.42-1.52A1.46,1.46,0,0,0,66.66,39a1.52,1.52,0,0,0-.79.17.47.47,0,0,0-.27.36.27.27,0,0,0,0,.15,1.4,1.4,0,0,0,.21.2,1.93,1.93,0,0,1,.48.48,1,1,0,0,1,.12.48,1,1,0,0,1-.3.74,1.07,1.07,0,0,1-.76.29,1,1,0,0,1-.8-.36,1.35,1.35,0,0,1-.32-.93,2.16,2.16,0,0,1,.59-1.46,2.89,2.89,0,0,1,2.25-.84,3.88,3.88,0,0,1,1.7.34,2.46,2.46,0,0,1,1.1.92,2.33,2.33,0,0,1,.37,1.28,2.21,2.21,0,0,1-.47,1.37A3.72,3.72,0,0,1,68.25,43.28Z"/><path class="cls-8" d="M43.05,66.32a3.49,3.49,0,0,1,.35,1.86,3.69,3.69,0,0,1-.38,2,1.11,1.11,0,0,1-.94.58,1,1,0,0,1-.9-.53,3.85,3.85,0,0,1-.47-2,3,3,0,0,1,.44-1.74,1.26,1.26,0,0,1,1-.6A1,1,0,0,1,43.05,66.32Zm-1.79-3.93a1.5,1.5,0,0,1,1.39-1,.81.81,0,0,1,.48.11.35.35,0,0,1,.16.29.65.65,0,0,1-.11.3,1.19,1.19,0,0,0-.19.64,1,1,0,0,0,.29.72.94.94,0,0,0,.71.29,1.08,1.08,0,0,0,.82-.34,1.2,1.2,0,0,0,.32-.86,1.66,1.66,0,0,0-.67-1.29,2.76,2.76,0,0,0-1.8-.55,3.61,3.61,0,0,0-2.92,1.47,6.67,6.67,0,0,0-1.33,4.34,5.84,5.84,0,0,0,1.1,3.75,3.15,3.15,0,0,0,2.57,1.17,3.28,3.28,0,0,0,2.49-1,3.57,3.57,0,0,0,1-2.6,2.87,2.87,0,0,0-.85-2.25,2.77,2.77,0,0,0-1.9-.75,2.38,2.38,0,0,0-1.07.26,3.32,3.32,0,0,0-1,.77A8.26,8.26,0,0,1,41.26,62.39Z"/><path class="cls-8" d="M19.52,38.8a3,3,0,0,1,.5,1.89,3.37,3.37,0,0,1-.44,1.91,1.25,1.25,0,0,1-1.06.62,1.07,1.07,0,0,1-.92-.51A3.41,3.41,0,0,1,17.26,41a3.94,3.94,0,0,1,.38-2,1.16,1.16,0,0,1,1-.58A1.09,1.09,0,0,1,19.52,38.8Zm.2,7.12A2.88,2.88,0,0,1,19,47.3a1.5,1.5,0,0,1-1,.41,1,1,0,0,1-.5-.13.31.31,0,0,1-.14-.26.69.69,0,0,1,.13-.35,1.44,1.44,0,0,0,.21-.63,1,1,0,0,0-.3-.75,1,1,0,0,0-.73-.3,1.1,1.1,0,0,0-.82.35,1.25,1.25,0,0,0-.33.9,1.65,1.65,0,0,0,.71,1.28,2.84,2.84,0,0,0,1.81.57,3.6,3.6,0,0,0,2.92-1.48,6.93,6.93,0,0,0,1.34-4.42,5.75,5.75,0,0,0-1.1-3.69,3.11,3.11,0,0,0-2.53-1.13,3.68,3.68,0,0,0-1.82.43,3,3,0,0,0-1.23,1.28,4,4,0,0,0-.44,1.9,2.79,2.79,0,0,0,1,2.3,2.64,2.64,0,0,0,1.74.63,3,3,0,0,0,2-.85l.12-.1A10.09,10.09,0,0,1,19.72,45.92Z"/><path class="cls-8" d="M35.25,15.71a9.43,9.43,0,0,0,2-.3,7.57,7.57,0,0,0,1.62-.66h.53v9a.51.51,0,0,0,.15.4.54.54,0,0,0,.41.15h1.37V25H35.56v-.69h1.07a.76.76,0,0,0,.58-.18.82.82,0,0,0,.18-.59V16.88a.46.46,0,0,0-.15-.36.65.65,0,0,0-.43-.12H35.25Z"/><path class="cls-8" d="M44,23.4H47.4a.9.9,0,0,0,.74-.32,3.25,3.25,0,0,0,.45-1.36h.72l-.21,3.54H42.42v-.64A22.52,22.52,0,0,1,44.54,22a13.92,13.92,0,0,0,1.81-2.36,4.49,4.49,0,0,0,.57-2.15,2.17,2.17,0,0,0-.41-1.42,1.44,1.44,0,0,0-1.14-.49,1.82,1.82,0,0,0-1.21.4,1.08,1.08,0,0,0-.48.81.32.32,0,0,0,.11.27,1.22,1.22,0,0,0,.52.2q.9.24.9,1a1.12,1.12,0,0,1-.35.84,1.17,1.17,0,0,1-.86.33,1.06,1.06,0,0,1-.89-.46,2,2,0,0,1-.35-1.27,2.62,2.62,0,0,1,.74-1.92A3.32,3.32,0,0,1,46,14.81a3.25,3.25,0,0,1,2.28.79,2.5,2.5,0,0,1,.87,1.94,2.78,2.78,0,0,1-.22,1.13,4.22,4.22,0,0,1-.76,1.24,10,10,0,0,1-1.62,1.38c-.82.59-1.39,1-1.7,1.28A8.35,8.35,0,0,0,44,23.4Z"/><path class="cls-8" d="M26,35.89c-.11.17-.09.36.06.42l16.27,7.07a.42.42,0,0,0,.47-.19c.11-.17.09-.36-.06-.42L26.51,35.7A.42.42,0,0,0,26,35.89Z"/><path class="cls-8" d="M64.34,26.31a.63.63,0,0,0-.56.15L43,42.81c-.18.14-.23.31-.11.38a.59.59,0,0,0,.55-.14L64.23,26.7C64.41,26.55,64.46,26.38,64.34,26.31Z"/><path class="cls-9" d="M44.37,43.19a1.53,1.53,0,1,1-1.53-1.53A1.52,1.52,0,0,1,44.37,43.19Z"/><path class="cls-10" d="M43.21,44a.92.92,0,1,1,.45-1.2A.91.91,0,0,1,43.21,44Z"/></svg>